<svg data-v-423bf9ae="" xmlns="http://www.w3.org/2000/svg" viewBox="0 0 390 90" class="iconLeft"><!----><!----><!----><g data-v-423bf9ae="" id="1f87f53e-7618-408b-b0f7-6c52d16e497a" fill="black" transform="matrix(5.759280204772949,0,0,5.759280204772949,165.7142791748047,11.13048267364502)"><path d="M6.44 7.85L6.44 7.85L6.44 7.85Q6.44 8.11 6.41 8.34L6.41 8.34L6.41 8.34Q6.37 8.58 6.30 8.82L6.30 8.82L6.30 8.82Q6.15 9.31 5.85 9.73L5.85 9.73L5.85 9.73Q5.56 10.15 5.15 10.45L5.15 10.45L5.15 10.45Q4.75 10.75 4.26 10.92L4.26 10.92L4.26 10.92Q3.77 11.09 3.22 11.09L3.22 11.09L3.22 11.09Q2.55 11.09 1.97 10.84L1.97 10.84L1.97 10.84Q1.39 10.58 0.95 10.14L0.95 10.14L0.95 10.14Q0.50 9.70 0.25 9.11L0.25 9.11L0.25 9.11Q0 8.53 0 7.85L0 7.85L2.35 7.85L2.35 7.85Q2.35 8.22 2.60 8.48L2.60 8.48L2.60 8.48Q2.86 8.74 3.22 8.74L3.22 8.74L3.22 8.74Q3.51 8.74 3.74 8.56L3.74 8.56L3.74 8.56Q3.96 8.39 4.05 8.12L4.05 8.12L4.05 8.12Q4.09 8.01 4.09 7.87L4.09 7.87L4.09 7.87Q4.09 7.50 3.84 7.28L3.84 7.28L3.84 7.28Q3.58 7.06 3.22 7.06L3.22 7.06L3.22 7.06Q2.55 7.06 1.97 6.81L1.97 6.81L1.97 6.81Q1.39 6.57 0.95 6.14L0.95 6.14L0.95 6.14Q0.50 5.71 0.25 5.14L0.25 5.14L0.25 5.14Q0 4.56 0 3.89L0 3.89L0 3.89Q0 3.65 0.04 3.42L0.04 3.42L0.04 3.42Q0.07 3.18 0.14 2.94L0.14 2.94L0.14 2.94Q0.29 2.45 0.59 2.03L0.59 2.03L0.59 2.03Q0.88 1.61 1.29 1.31L1.29 1.31L1.29 1.31Q1.69 1.01 2.18 0.84L2.18 0.84L2.18 0.84Q2.67 0.67 3.22 0.67L3.22 0.67L3.22 0.67Q3.89 0.67 4.47 0.92L4.47 0.92L4.47 0.92Q5.05 1.18 5.50 1.62L5.50 1.62L5.50 1.62Q5.94 2.06 6.19 2.65L6.19 2.65L6.19 2.65Q6.44 3.23 6.44 3.89L6.44 3.89L4.09 3.89L4.09 3.89Q4.09 3.53 3.84 3.28L3.84 3.28L3.84 3.28Q3.58 3.02 3.22 3.02L3.22 3.02L3.22 3.02Q2.93 3.02 2.70 3.20L2.70 3.20L2.70 3.20Q2.48 3.37 2.39 3.64L2.39 3.64L2.39 3.64Q2.35 3.74 2.35 3.89L2.35 3.89L2.35 3.89Q2.35 4.26 2.60 4.48L2.60 4.48L2.60 4.48Q2.86 4.70 3.22 4.70L3.22 4.70L3.22 4.70Q3.89 4.70 4.47 4.95L4.47 4.95L4.47 4.95Q5.05 5.19 5.50 5.62L5.50 5.62L5.50 5.62Q5.94 6.05 6.19 6.62L6.19 6.62L6.19 6.62Q6.44 7.20 6.44 7.85ZM14.17 11.09L14.17 11.09L12.77 7.06L10.84 7.06L9.44 11.09L6.90 11.09L10.51 0.67L13.09 0.67L16.70 11.09L14.17 11.09ZM19.77 8.74L19.77 8.74L22.55 8.74L22.55 11.09L17.42 11.09L17.42 0.67L19.77 0.67L19.77 8.74ZM25.80 8.74L25.80 8.74L28.59 8.74L28.59 11.09L23.45 11.09L23.45 0.67L25.80 0.67L25.80 8.74ZM36.34 11.09L36.34 11.09L34.94 7.06L33.01 7.06L31.61 11.09L29.08 11.09L32.69 0.67L35.27 0.67L38.88 11.09L36.34 11.09Z"></path></g><!----><g data-v-423bf9ae="" id="6e47ec57-8c10-45e8-9e79-1bb8d50a12cf" transform="matrix(2.142857074737549,0,0,2.142857074737549,-34.142852783203125,-62.142852783203125)" stroke="none" fill="black"><circle cx="50" cy="63" r="8"></circle><circle cx="31.3" cy="63" r="3"></circle><circle cx="19" cy="63" r="3"></circle><circle cx="68.7" cy="63" r="3"></circle><circle cx="81" cy="63" r="3"></circle><circle cx="50" cy="32" r="3"></circle><circle cx="50" cy="44.3" r="3"></circle><circle cx="63.2" cy="49.8" r="3"></circle><circle cx="36.7" cy="49.8" r="3"></circle><circle cx="28.1" cy="41.1" r="3"></circle><circle cx="71.9" cy="41.1" r="3"></circle><circle cx="21.4" cy="51.1" r="3"></circle><circle cx="78.6" cy="51.1" r="3"></circle><circle cx="38.1" cy="34.3" r="3"></circle><circle cx="61.9" cy="34.3" r="3"></circle></g><!----></svg>